<svg width="34" height="54" viewBox="0 0 34 54" fill="none" xmlns="http://www.w3.org/2000/svg">
<path fill-rule="evenodd" clip-rule="evenodd" d="M17.0002 0.75C17.4975 0.75 17.9744 0.947544 18.326 1.29917C18.6776 1.65081 18.8752 2.12772 18.8752 2.625V46.8488L30.6727 35.0475C31.0247 34.6954 31.5023 34.4976 32.0002 34.4976C32.4981 34.4976 32.9756 34.6954 33.3277 35.0475C33.6797 35.3996 33.8775 35.8771 33.8775 36.375C33.8775 36.8729 33.6797 37.3504 33.3277 37.7025L18.3277 52.7025C18.1535 52.8771 17.9466 53.0156 17.7188 53.1102C17.491 53.2047 17.2468 53.2533 17.0002 53.2533C16.7535 53.2533 16.5093 53.2047 16.2815 53.1102C16.0538 53.0156 15.8468 52.8771 15.6727 52.7025L0.672671 37.7025C0.320596 37.3504 0.122803 36.8729 0.122803 36.375C0.122803 35.8771 0.320596 35.3996 0.672671 35.0475C1.02475 34.6954 1.50226 34.4976 2.00017 34.4976C2.49808 34.4976 2.9756 34.6954 3.32767 35.0475L15.1252 46.8488V2.625C15.1252 2.12772 15.3227 1.65081 15.6743 1.29917C16.026 0.947544 16.5029 0.75 17.0002 0.75Z" fill="url(#paint0_linear_107_2781)"/>
<defs>
<linearGradient id="paint0_linear_107_2781" x1="17.0002" y1="0.75" x2="17.0002" y2="53.2533" gradientUnits="userSpaceOnUse">
<stop stop-color="#FF0087"/>
<stop offset="1" stop-color="#761594"/>
</linearGradient>
</defs>
</svg>
