<svg width="30" height="30" viewBox="0 0 30 30" fill="none" xmlns="http://www.w3.org/2000/svg">
<path d="M28.4167 13H1.58333C0.708883 13 0 13.7089 0 14.5833V14.75C0 15.6245 0.708883 16.3333 1.58333 16.3333H28.4167C29.2911 16.3333 30 15.6245 30 14.75V14.5833C30 13.7089 29.2911 13 28.4167 13Z" fill="#F4F4F4"/>
<path d="M28.4167 22H1.58333C0.708883 22 0 22.7089 0 23.5833V23.75C0 24.6244 0.708883 25.3333 1.58333 25.3333H28.4167C29.2911 25.3333 30 24.6244 30 23.75V23.5833C30 22.7089 29.2911 22 28.4167 22Z" fill="#F4F4F4"/>
<path d="M28.4167 5H1.58333C0.708883 5 0 5.70888 0 6.58333V6.75C0 7.62445 0.708883 8.33333 1.58333 8.33333H28.4167C29.2911 8.33333 30 7.62445 30 6.75V6.58333C30 5.70888 29.2911 5 28.4167 5Z" fill="#F4F4F4"/>
</svg>
